<svg width="23" height="23" viewBox="0 0 23 23" fill="none" xmlns="http://www.w3.org/2000/svg">
<path fill-rule="evenodd" clip-rule="evenodd" d="M9.82906 2.1391C8.56026 2.13921 7.30989 2.44274 6.18226 3.02436C5.05462 3.60599 4.08243 4.44884 3.34679 5.48261C2.61115 6.51638 2.1334 7.71108 1.95338 8.96704C1.77337 10.223 1.89632 11.5038 2.31198 12.7026C2.72763 13.9014 3.42394 14.9834 4.3428 15.8583C5.26167 16.7332 6.37645 17.3758 7.59413 17.7323C8.81182 18.0887 10.0971 18.1489 11.3427 17.9076C12.5884 17.6663 13.7583 17.1307 14.7548 16.3453L18.1734 19.764C18.35 19.9345 18.5864 20.0288 18.8319 20.0267C19.0773 20.0246 19.3121 19.9261 19.4857 19.7526C19.6592 19.579 19.7577 19.3442 19.7598 19.0988C19.762 18.8533 19.6676 18.6169 19.4971 18.4403L16.0785 15.0217C17.0033 13.8484 17.5792 12.4384 17.7401 10.9531C17.9011 9.46786 17.6406 7.96727 16.9885 6.6231C16.3365 5.27893 15.3192 4.14549 14.053 3.3525C12.7869 2.55951 11.323 2.139 9.82906 2.1391ZM3.74441 10.0959C3.74441 8.48219 4.38547 6.93454 5.52656 5.79345C6.66766 4.65235 8.21531 4.0113 9.82906 4.0113C11.4428 4.0113 12.9905 4.65235 14.1315 5.79345C15.2726 6.93454 15.9137 8.48219 15.9137 10.0959C15.9137 11.7097 15.2726 13.2573 14.1315 14.3984C12.9905 15.5395 11.4428 16.1806 9.82906 16.1806C8.21531 16.1806 6.66766 15.5395 5.52656 14.3984C4.38547 13.2573 3.74441 11.7097 3.74441 10.0959Z" fill="#848484"/>
</svg>
